<?xml version="1.0" standalone="no"?>
<!DOCTYPE svg PUBLIC "-//W3C//DTD SVG 20010904//EN"
 "http://www.w3.org/TR/2001/REC-SVG-20010904/DTD/svg10.dtd">
<svg version="1.0" xmlns="http://www.w3.org/2000/svg"
 width="225.000000pt" height="225.000000pt" viewBox="0 0 225.000000 225.000000"
 preserveAspectRatio="xMidYMid meet">
<metadata>
Created by potrace 1.14, written by Peter Selinger 2001-2017
</metadata>
<g transform="translate(0.000000,225.000000) scale(0.100000,-0.100000)"
fill="#000000" stroke="none">
<path d="M1028 2035 c-2 -2 -28 -5 -58 -8 -101 -10 -173 -31 -270 -75 -127
-59 -226 -139 -360 -291 -82 -93 -104 -126 -148 -220 -34 -72 -36 -82 -36
-181 -1 -86 2 -111 18 -137 24 -39 57 -57 85 -48 27 8 67 48 76 75 3 11 10 20
14 20 4 0 8 6 9 13 0 6 8 32 17 57 24 65 27 90 29 238 l2 133 34 41 c122 144
261 231 443 278 107 27 265 30 374 7 282 -61 526 -285 612 -565 20 -64 25 -90
35 -180 3 -28 10 -35 41 -38 34 -4 44 20 35 86 -9 64 -37 177 -51 202 -5 10
-9 25 -9 33 0 8 -5 15 -12 15 -6 0 -9 3 -5 6 16 16 -99 188 -181 270 -123 122
-301 219 -452 247 -14 3 -41 8 -60 11 -38 7 -177 15 -182 11z m-656 -517 c5
-13 4 -43 -6 -138 -11 -101 -27 -159 -59 -205 -30 -43 -41 -47 -50 -22 -16 44
23 228 69 325 26 52 38 63 46 40z"/>
<path d="M671 1543 c-39 -31 -40 -57 -3 -72 l29 -12 -44 -130 c-45 -137 -50
-168 -31 -187 30 -30 75 1 113 77 15 28 29 51 33 52 4 0 23 2 42 4 50 3 48 3
66 30 23 35 5 55 -51 55 l-43 0 13 51 c16 60 13 56 50 63 43 8 58 27 46 59 -9
23 -17 27 -53 28 -24 0 -64 2 -90 3 -36 2 -53 -2 -77 -21z"/>
<path d="M1589 1494 c-8 -9 -21 -35 -29 -57 -12 -33 -20 -41 -42 -42 -31 -2
-50 -16 -79 -56 -24 -34 -39 -111 -27 -133 13 -24 52 -20 86 9 37 31 50 31 54
3 2 -18 9 -22 28 -20 38 4 45 17 34 59 -10 41 0 163 16 200 7 17 5 26 -6 38
-19 19 -19 19 -35 -1z m-63 -180 c-2 -11 2 -22 8 -26 13 -8 -23 -39 -39 -34
-17 5 -17 53 1 88 16 31 17 31 25 11 4 -11 6 -29 5 -39z"/>
<path d="M1005 1397 c-61 -35 -106 -95 -99 -134 1 -7 2 -22 3 -33 1 -24 60
-51 105 -48 53 3 102 43 115 93 16 64 1 93 -50 93 -42 1 -48 -10 -24 -42 32
-42 11 -106 -34 -106 -70 0 -34 152 40 167 16 3 29 9 29 14 0 13 -61 9 -85 -4z"/>
<path d="M1228 1377 c-78 -59 -90 -152 -24 -184 35 -16 126 -11 126 7 0 5 8
11 18 14 20 7 42 58 42 99 0 26 -34 67 -55 67 -6 0 -20 -6 -30 -14 -18 -13
-18 -14 3 -36 12 -13 20 -32 17 -44 -2 -12 -4 -27 -4 -34 -2 -21 -48 -37 -66
-22 -43 36 7 160 65 160 11 0 20 5 20 10 0 24 -69 9 -112 -23z"/>
<path d="M1956 1102 c-9 -9 -38 -46 -63 -82 -26 -36 -67 -92 -91 -125 -58 -79
-73 -109 -77 -159 -2 -23 -8 -53 -13 -67 -18 -47 -136 -169 -212 -219 -12 -8
-28 -20 -34 -26 -28 -26 -179 -88 -257 -105 -88 -19 -268 -27 -303 -13 -10 4
-28 8 -40 9 -42 4 -101 18 -113 28 -7 5 -13 7 -13 4 0 -4 -33 10 -73 30 -180
91 -296 210 -381 388 -27 55 -51 107 -56 115 -11 23 -57 25 -69 2 -7 -14 -2
-36 23 -93 38 -89 103 -199 117 -199 6 0 8 -4 5 -9 -10 -15 120 -140 209 -201
28 -19 52 -38 53 -42 2 -5 9 -8 15 -8 7 0 29 -9 50 -20 20 -11 37 -17 37 -14
0 4 6 2 13 -4 19 -16 100 -42 180 -57 94 -18 291 -13 375 9 55 15 128 43 202
79 43 20 125 73 152 98 14 13 41 38 59 55 19 16 52 51 73 77 22 26 45 47 52
47 30 0 129 44 153 69 30 30 38 43 82 131 18 36 40 77 51 92 10 14 18 33 18
41 0 9 6 22 14 29 25 26 29 55 6 61 -16 4 -20 0 -20 -19 0 -13 -4 -24 -8 -24
-5 0 -38 -45 -73 -100 -35 -55 -67 -100 -71 -100 -19 0 -4 41 41 118 27 45 47
82 45 82 -2 0 7 18 21 41 15 22 25 48 23 57 -3 14 -9 10 -32 -15 -16 -18 -36
-44 -45 -57 -50 -73 -72 -105 -99 -136 -29 -34 -29 -34 -37 -11 -4 14 -2 29 7
39 8 9 40 61 72 115 57 95 68 126 32 89z"/>
<path d="M722 1030 c-69 -5 -73 -7 -92 -37 -17 -28 -18 -34 -5 -47 14 -14 65
-13 105 1 29 11 70 13 70 4 0 -5 -3 -11 -7 -13 -5 -1 -26 -25 -48 -53 -22 -27
-60 -71 -85 -96 -91 -94 -111 -129 -88 -152 19 -20 71 -30 143 -30 76 1 114
10 143 33 27 22 53 70 45 83 -5 8 -73 4 -134 -8 -31 -6 -41 10 -20 34 11 13
23 32 26 42 4 11 11 19 16 19 5 0 9 5 9 11 0 8 42 69 123 177 24 32 -45 43
-201 32z"/>
<path d="M964 971 c-38 -23 -57 -71 -48 -120 7 -36 48 -104 91 -150 l22 -25
23 25 c47 50 91 131 91 164 0 103 -93 158 -179 106z m106 -31 c28 -15 40 -61
25 -98 -24 -57 -105 -58 -135 -1 -13 23 -1 88 12 65 5 -9 18 -20 28 -26 27
-15 27 13 1 39 -14 14 -16 21 -8 25 21 8 58 6 77 -4z"/>
<path d="M1051 901 c-12 -22 -5 -27 19 -11 11 7 12 12 3 21 -8 8 -14 6 -22
-10z"/>
<path d="M1012 845 c-12 -14 -18 -25 -12 -25 5 0 13 8 19 17 9 16 11 16 32 -2
l22 -20 -18 28 c-9 15 -18 27 -19 27 -1 0 -12 -11 -24 -25z"/>
<path d="M1218 948 c-8 -13 -21 -41 -28 -63 -7 -22 -16 -50 -21 -63 -23 -61 0
-114 40 -92 12 6 21 14 21 18 1 9 66 82 74 82 3 0 6 -15 6 -32 1 -46 22 -70
57 -66 28 3 28 3 29 78 1 41 0 87 -3 103 -7 39 -41 35 -87 -10 l-37 -37 5 39
c8 61 -27 87 -56 43z"/>
<path d="M1504 942 c-61 -54 -94 -140 -69 -178 22 -34 68 -40 116 -14 78 40
94 79 19 45 -31 -14 -43 -16 -52 -7 -7 7 -8 12 -2 13 47 4 77 25 100 74 27 57
9 95 -44 95 -26 0 -46 -9 -68 -28z m60 -36 c-7 -40 -34 -96 -45 -96 -17 0 -3
77 19 105 20 27 32 24 26 -9z"/>
</g>
</svg>
